<?xml version="1.0" standalone="no"?><!DOCTYPE svg PUBLIC "-//W3C//DTD SVG 1.1//EN"
  "http://www.w3.org/Graphics/SVG/1.1/DTD/svg11.dtd">
<svg t="1530755611210" class="icon" style="" viewBox="0 0 1024 1024" version="1.1" xmlns="http://www.w3.org/2000/svg"
     p-id="1949" xmlns:xlink="http://www.w3.org/1999/xlink" width="200" height="200">
  <defs>
    <style type="text/css"></style>
  </defs>
  <path
    d="M883.773793 626.047476c-17.308201 0-31.408337 14.029528-31.408337 31.304983l0 207.437469c0 17.204847-14.098089 31.302937-31.406291 31.302937L203.040834 896.092865c-17.340947 0-31.408337-14.098089-31.408337-31.302937L171.632497 657.352459c0-17.275455-14.099113-31.304983-31.408337-31.304983-17.380856 0-31.444153 14.029528-31.444153 31.304983l0 207.437469c0 51.773154 42.261523 93.91188 94.260827 93.91188l617.918331 0c52.031027 0 94.259804-42.139749 94.259804-93.91188L915.21897 657.352459C915.21897 640.077004 901.152603 626.047476 883.773793 626.047476L883.773793 626.047476zM230.262826 614.286618c55.523571 0 104.556311-27.674293 134.394896-69.762877 32.487925 46.451962 86.303598 77.0744 147.343813 77.0744 61.036122 0 114.846678-30.623461 147.306974-77.0744 29.943986 42.018999 78.902024 69.762877 134.426619 69.762877 90.948385 0 164.968216-73.77526 164.968216-164.371628 0-11.062963-2.342348-22.859637-5.130857-35.178197-0.209778-1.134847 0.031722-2.26867-0.277316-3.38612l-0.629333-2.267647c-0.24764-0.924045-0.140193-1.535983-0.352017-2.547009-0.138146-0.505513-0.521886-0.87288-0.695848-1.39579l-85.364203-316.671313c-3.699252-13.645788-16.051581-23.172769-30.293957-23.172769L187.965487 65.296145c-14.238282 0-26.665313 9.526981-30.360472 23.24133L72.309374 405.1566c-0.103354 0.50756-0.48607 0.820692-0.62524 1.309832-0.210801 0.942465-0.107447 1.639337-0.349971 2.511193l-0.62524 2.373047c-0.318248 1.11745 0 2.25025-0.210801 3.38612-2.863211 12.31856-5.201465 24.115234-5.201465 35.178197C65.295634 540.511357 139.315464 614.286618 230.262826 614.286618L230.262826 614.286618z"
    p-id="1950" fill="#1296db"></path>
</svg>
